<svg width="93" height="30" viewBox="0 0 93 30" fill="none" xmlns="http://www.w3.org/2000/svg">
<circle cx="39" cy="15" r="15" fill="white"/>
<path d="M5.28 23.16C4.33333 23.16 3.56 23 2.96 22.68C2.37333 22.36 1.94667 21.9267 1.68 21.38C1.41333 20.8333 1.28 20.22 1.28 19.54V15.46H0V12.98H1.58L3.44 9.82H5.5V12.98H7.82V15.46H5.5V18.96C5.5 19.2667 5.6 19.5067 5.8 19.68C6 19.84 6.26 19.92 6.58 19.92C6.9 19.92 7.22 19.84 7.54 19.68L7.84 22.46C7.52 22.6867 7.11333 22.86 6.62 22.98C6.12667 23.1 5.68 23.16 5.28 23.16ZM9.28125 23V9.82L13.5013 9.2V15.04C13.7813 14.3467 14.2213 13.8067 14.8213 13.42C15.4213 13.0333 16.1413 12.84 16.9813 12.84C18.2879 12.84 19.3013 13.2933 20.0213 14.2C20.7413 15.0933 21.1013 16.36 21.1013 18V23H16.8813V17.78C16.8813 16.5933 16.4013 16 15.4413 16C14.8679 16 14.4013 16.2133 14.0413 16.64C13.6813 17.0533 13.5013 17.6133 13.5013 18.32V23H9.28125ZM62.1389 26.9C61.6322 26.9 61.1589 26.8667 60.7189 26.8C60.2789 26.7333 59.9322 26.6533 59.6789 26.56L59.9989 23.66C60.2389 23.7133 60.4989 23.7533 60.7789 23.78C61.0589 23.82 61.3322 23.84 61.5989 23.84C62.4922 23.84 63.1322 23.6533 63.5189 23.28C63.9189 22.9067 64.1189 22.3333 64.1189 21.56V20.42C63.7989 21.2333 63.3456 21.8267 62.7589 22.2C62.1722 22.56 61.4789 22.74 60.6789 22.74C59.4389 22.74 58.4789 22.2933 57.7989 21.4C57.1189 20.4933 56.7789 19.22 56.7789 17.58V12.98H60.9989V17.8C60.9989 18.9867 61.4189 19.58 62.2589 19.58C62.7789 19.58 63.1922 19.3667 63.4989 18.94C63.8189 18.5133 63.9789 17.9533 63.9789 17.26V12.98H68.1989V20.66C68.1989 22.7933 67.6722 24.3667 66.6189 25.38C65.5656 26.3933 64.0722 26.9 62.1389 26.9ZM73.8992 23.16C73.0059 23.16 72.2792 23 71.7192 22.68C71.1726 22.36 70.7726 21.9267 70.5192 21.38C70.2659 20.8333 70.1392 20.22 70.1392 19.54V12.98H74.3592V18.96C74.3592 19.2667 74.4459 19.5067 74.6192 19.68C74.8059 19.84 75.0259 19.92 75.2792 19.92C75.5459 19.92 75.8192 19.84 76.0992 19.68L76.3192 22.46C76.0259 22.6867 75.6459 22.86 75.1792 22.98C74.7126 23.1 74.2859 23.16 73.8992 23.16ZM72.2592 11.88C71.6459 11.88 71.1192 11.6867 70.6792 11.3C70.2392 10.9 70.0192 10.4133 70.0192 9.84C70.0192 9.44 70.1259 9.09333 70.3392 8.8C70.5526 8.49333 70.8326 8.25333 71.1792 8.08C71.5259 7.90667 71.8859 7.82 72.2592 7.82C72.6726 7.82 73.0459 7.91333 73.3792 8.1C73.7259 8.28667 73.9992 8.53333 74.1992 8.84C74.4126 9.14667 74.5192 9.48 74.5192 9.84C74.5192 10.24 74.4059 10.5933 74.1792 10.9C73.9659 11.2067 73.6859 11.4467 73.3392 11.62C73.0059 11.7933 72.6459 11.88 72.2592 11.88ZM80.5677 23.16C79.9677 23.16 79.361 23.1 78.7477 22.98C78.1343 22.86 77.581 22.6933 77.0877 22.48L77.6677 19.96C77.9743 20.12 78.3943 20.26 78.9277 20.38C79.461 20.4867 79.9343 20.54 80.3477 20.54C81.0143 20.54 81.3477 20.36 81.3477 20C81.3477 19.8267 81.241 19.7 81.0277 19.62C80.8277 19.54 80.561 19.4733 80.2277 19.42C79.9077 19.3533 79.561 19.2733 79.1877 19.18C78.8143 19.0733 78.461 18.92 78.1277 18.72C77.8077 18.5067 77.541 18.2067 77.3277 17.82C77.1277 17.4333 77.0277 16.9267 77.0277 16.3C77.0277 15.2467 77.441 14.4067 78.2677 13.78C79.1077 13.1533 80.2543 12.84 81.7077 12.84C82.2677 12.84 82.7877 12.88 83.2677 12.96C83.761 13.04 84.2277 13.2067 84.6677 13.46L84.2477 15.9C83.541 15.6067 82.801 15.46 82.0277 15.46C81.5343 15.46 81.1743 15.5 80.9477 15.58C80.7343 15.66 80.6277 15.7933 80.6277 15.98C80.6277 16.1267 80.7343 16.24 80.9477 16.32C81.161 16.4 81.4343 16.48 81.7677 16.56C82.1143 16.6267 82.4743 16.7267 82.8477 16.86C83.221 16.98 83.5743 17.1533 83.9077 17.38C84.2543 17.6067 84.5343 17.9133 84.7477 18.3C84.961 18.6733 85.0677 19.16 85.0677 19.76C85.0677 20.8267 84.6743 21.66 83.8877 22.26C83.101 22.86 81.9943 23.16 80.5677 23.16ZM90.1688 23.16C89.2754 23.16 88.5488 23 87.9888 22.68C87.4421 22.36 87.0421 21.9267 86.7887 21.38C86.5354 20.8333 86.4088 20.22 86.4088 19.54V12.98H90.6288V18.96C90.6288 19.2667 90.7154 19.5067 90.8888 19.68C91.0754 19.84 91.2954 19.92 91.5488 19.92C91.8154 19.92 92.0888 19.84 92.3688 19.68L92.5888 22.46C92.2954 22.6867 91.9154 22.86 91.4488 22.98C90.9821 23.1 90.5554 23.16 90.1688 23.16ZM88.5288 11.88C87.9154 11.88 87.3888 11.6867 86.9488 11.3C86.5088 10.9 86.2888 10.4133 86.2888 9.84C86.2888 9.44 86.3954 9.09333 86.6088 8.8C86.8221 8.49333 87.1021 8.25333 87.4488 8.08C87.7954 7.90667 88.1554 7.82 88.5288 7.82C88.9421 7.82 89.3154 7.91333 89.6488 8.1C89.9954 8.28667 90.2688 8.53333 90.4688 8.84C90.6821 9.14667 90.7888 9.48 90.7888 9.84C90.7888 10.24 90.6754 10.5933 90.4488 10.9C90.2354 11.2067 89.9554 11.4467 89.6088 11.62C89.2754 11.7933 88.9154 11.88 88.5288 11.88Z" fill="white"/>
<path d="M29.2122 20.36C29.5989 20.36 30.0055 20.32 30.4322 20.24C30.8722 20.16 31.3189 20.0133 31.7722 19.8L32.2522 22.38C31.7589 22.6333 31.2189 22.8267 30.6322 22.96C30.0589 23.0933 29.3989 23.16 28.6522 23.16C27.3055 23.16 26.1722 22.94 25.2522 22.5C24.3455 22.06 23.6589 21.4533 23.1922 20.68C22.7255 19.9067 22.4922 19.0133 22.4922 18C22.4922 16.96 22.7389 16.0533 23.2322 15.28C23.7389 14.5067 24.4122 13.9067 25.2522 13.48C26.0922 13.0533 27.0189 12.84 28.0322 12.84C29.5389 12.84 30.6922 13.3133 31.4922 14.26C32.2922 15.1933 32.6922 16.5267 32.6922 18.26L26.7322 19.02C27.1722 19.9133 27.9989 20.36 29.2122 20.36ZM26.4122 17.18L29.5522 16.52C29.4989 16.0933 29.3522 15.78 29.1122 15.58C28.8722 15.3667 28.5722 15.26 28.2122 15.26C27.6789 15.26 27.2522 15.4467 26.9322 15.82C26.6255 16.18 26.4522 16.6333 26.4122 17.18ZM34.0259 26.12V23H41.6459V26.12H34.0259ZM47.3927 23.16C46.4727 23.16 45.6393 22.94 44.8927 22.5C44.146 22.0467 43.5527 21.4267 43.1127 20.64C42.686 19.8533 42.4727 18.9533 42.4727 17.94C42.4727 16.9267 42.686 16.04 43.1127 15.28C43.5527 14.52 44.146 13.9267 44.8927 13.5C45.6393 13.06 46.4727 12.84 47.3927 12.84C48.046 12.84 48.6793 13.02 49.2927 13.38C49.906 13.74 50.3793 14.3333 50.7127 15.16V12.98H54.8727V23H50.6727V21.14C50.3527 21.7933 49.926 22.2933 49.3927 22.64C48.8593 22.9867 48.1927 23.16 47.3927 23.16ZM48.6927 20C49.2393 20 49.706 19.8067 50.0927 19.42C50.4793 19.02 50.6727 18.5333 50.6727 17.96C50.6727 17.3867 50.4793 16.92 50.0927 16.56C49.706 16.1867 49.2393 16 48.6927 16C48.1193 16 47.6393 16.1933 47.2527 16.58C46.866 16.9667 46.6727 17.44 46.6727 18C46.6727 18.56 46.866 19.0333 47.2527 19.42C47.6393 19.8067 48.1193 20 48.6927 20Z" fill="#181D31"/>
</svg>
