<svg width="24" height="24" viewBox="0 0 24 24" fill="none" xmlns="http://www.w3.org/2000/svg">
<path d="M21.7102 8.70999C22.9602 7.45999 22.3902 5.99999 21.7102 5.28999L18.7102 2.28999C17.4502 1.03999 16.0002 1.60999 15.2902 2.28999L13.5902 3.99999H11.0002C9.10017 3.99999 8.00017 4.99999 7.44017 6.14999L3.00017 10.59V14.59L2.29017 15.29C1.04017 16.55 1.61017 18 2.29017 18.71L5.29017 21.71C5.83017 22.25 6.41017 22.45 6.96017 22.45C7.67017 22.45 8.32017 22.1 8.71017 21.71L11.4102 19H15.0002C16.7002 19 17.5602 17.94 17.8702 16.9C19.0002 16.6 19.6202 15.74 19.8702 14.9C21.4202 14.5 22.0002 13.03 22.0002 12V8.99999H21.4102L21.7102 8.70999ZM20.0002 12C20.0002 12.45 19.8102 13 19.0002 13H18.0002V14C18.0002 14.45 17.8102 15 17.0002 15H16.0002V16C16.0002 16.45 15.8102 17 15.0002 17H10.5902L7.31017 20.28C7.00017 20.57 6.82017 20.4 6.71017 20.29L3.72017 17.31C3.43017 17 3.60017 16.82 3.71017 16.71L5.00017 15.41V11.41L7.00017 9.40999V11C7.00017 12.21 7.80017 14 10.0002 14C12.2002 14 13.0002 12.21 13.0002 11H20.0002V12ZM20.2902 7.28999L18.5902 8.99999H11.0002V11C11.0002 11.45 10.8102 12 10.0002 12C9.19017 12 9.00017 11.45 9.00017 11V7.99999C9.00017 7.53999 9.17017 5.99999 11.0002 5.99999H14.4102L16.6902 3.71999C17.0002 3.42999 17.1802 3.59999 17.2902 3.70999L20.2802 6.68999C20.5702 6.99999 20.4002 7.17999 20.2902 7.28999Z" fill="white"/>
</svg>
